<svg xmlns="http://www.w3.org/2000/svg" xmlns:xlink="http://www.w3.org/1999/xlink" width="397.5855" height="824.12899" viewBox="0 0 397.5855 824.12899"><path d="m333.78588,824.12899H63.79962c-35.17906,0-63.79962-28.62018-63.79962-63.79962V63.79962C0,28.62018,28.62056,0,63.79962,0h269.98626c35.17944,0,63.79962,28.62018,63.79962,63.79962v696.52975c0,35.17944-28.62018,63.79962-63.79962,63.79962Z" fill="#2f2e41" stroke-width="0"/><path d="m334.06103,806.91072H63.52447c-26.39643,0-47.8715-21.47545-47.8715-47.8715V61.17652c0-26.39605,21.47507-47.8715,47.8715-47.8715h270.53656c26.39605,0,47.8715,21.47545,47.8715,47.8715v697.8627c0,26.39605-21.47545,47.8715-47.8715,47.8715Z" fill="#fff" stroke-width="0"/><path d="m241.05577,58.69865h-86.09135c-9.92565,0-18.00092-8.07489-18.00092-18.00092s8.07527-18.00092,18.00092-18.00092h86.09135c9.92603,0,18.00092,8.07489,18.00092,18.00092s-8.07489,18.00092-18.00092,18.00092Z" fill="#2f2e41" stroke-width="0"/><path d="m96.96566,435.14754h-27.70093c-6.69933,0-12.14953-5.60742-12.14953-12.5v-26c0-6.89258,5.4502-12.5,12.14953-12.5h27.70093c6.69933,0,12.14953,5.60742,12.14953,12.5v26c0,6.89258-5.4502,12.5-12.14953,12.5Z" fill="#2f2e41" stroke-width="0"/><path d="m173.46566,435.14754h-27.70093c-6.69933,0-12.14953-5.60742-12.14953-12.5v-26c0-6.89258,5.4502-12.5,12.14953-12.5h27.70093c6.69933,0,12.14953,5.60742,12.14953,12.5v26c0,6.89258-5.4502,12.5-12.14953,12.5Z" fill="#2f2e41" stroke-width="0"/><path d="m249.96566,435.14754h-27.70093c-6.69933,0-12.14953-5.60742-12.14953-12.5v-26c0-6.89258,5.4502-12.5,12.14953-12.5h27.70093c6.69933,0,12.14953,5.60742,12.14953,12.5v26c0,6.89258-5.4502,12.5-12.14953,12.5Z" fill="#ccc" stroke-width="0"/><path d="m326.46566,435.14754h-27.70093c-6.69933,0-12.14953-5.60742-12.14953-12.5v-26c0-6.89258,5.4502-12.5,12.14953-12.5h27.70093c6.69933,0,12.14953,5.60742,12.14953,12.5v26c0,6.89258-5.4502,12.5-12.14953,12.5Z" fill="#ccc" stroke-width="0"/><circle cx="183.61519" cy="385.14754" r="10" fill="#6c63ff" stroke-width="0"/><circle cx="104.61519" cy="385.14754" r="10" fill="#6c63ff" stroke-width="0"/><path d="m96.96566,517.14754h-27.70093c-6.69933,0-12.14953-5.60742-12.14953-12.5v-26c0-6.89258,5.4502-12.5,12.14953-12.5h27.70093c6.69933,0,12.14953,5.60742,12.14953,12.5v26c0,6.89258-5.4502,12.5-12.14953,12.5Z" fill="#ccc" stroke-width="0"/><path d="m173.46566,517.14754h-27.70093c-6.69933,0-12.14953-5.60742-12.14953-12.5v-26c0-6.89258,5.4502-12.5,12.14953-12.5h27.70093c6.69933,0,12.14953,5.60742,12.14953,12.5v26c0,6.89258-5.4502,12.5-12.14953,12.5Z" fill="#2f2e41" stroke-width="0"/><path d="m249.96566,517.14754h-27.70093c-6.69933,0-12.14953-5.60742-12.14953-12.5v-26c0-6.89258,5.4502-12.5,12.14953-12.5h27.70093c6.69933,0,12.14953,5.60742,12.14953,12.5v26c0,6.89258-5.4502,12.5-12.14953,12.5Z" fill="#ccc" stroke-width="0"/><path d="m326.46566,517.14754h-27.70093c-6.69933,0-12.14953-5.60742-12.14953-12.5v-26c0-6.89258,5.4502-12.5,12.14953-12.5h27.70093c6.69933,0,12.14953,5.60742,12.14953,12.5v26c0,6.89258-5.4502,12.5-12.14953,12.5Z" fill="#ccc" stroke-width="0"/><circle cx="183.61519" cy="467.14754" r="10" fill="#ff6363" stroke-width="0"/><path d="m96.96566,600.14754h-27.70093c-6.69933,0-12.14953-5.60742-12.14953-12.5v-26c0-6.89258,5.4502-12.5,12.14953-12.5h27.70093c6.69933,0,12.14953,5.60742,12.14953,12.5v26c0,6.89258-5.4502,12.5-12.14953,12.5Z" fill="#2f2e41" stroke-width="0"/><path d="m173.46566,600.14754h-27.70093c-6.69933,0-12.14953-5.60742-12.14953-12.5v-26c0-6.89258,5.4502-12.5,12.14953-12.5h27.70093c6.69933,0,12.14953,5.60742,12.14953,12.5v26c0,6.89258-5.4502,12.5-12.14953,12.5Z" fill="#ccc" stroke-width="0"/><path d="m249.96566,600.14754h-27.70093c-6.69933,0-12.14953-5.60742-12.14953-12.5v-26c0-6.89258,5.4502-12.5,12.14953-12.5h27.70093c6.69933,0,12.14953,5.60742,12.14953,12.5v26c0,6.89258-5.4502,12.5-12.14953,12.5Z" fill="#ccc" stroke-width="0"/><path d="m326.46566,600.14754h-27.70093c-6.69933,0-12.14953-5.60742-12.14953-12.5v-26c0-6.89258,5.4502-12.5,12.14953-12.5h27.70093c6.69933,0,12.14953,5.60742,12.14953,12.5v26c0,6.89258-5.4502,12.5-12.14953,12.5Z" fill="#ccc" stroke-width="0"/><circle cx="104.61519" cy="550.14754" r="10" fill="#6c63ff" stroke-width="0"/><path d="m96.96566,185.14754h-27.70093c-6.69933,0-12.14953-5.60742-12.14953-12.5v-26c0-6.89258,5.4502-12.5,12.14953-12.5h27.70093c6.69933,0,12.14953,5.60742,12.14953,12.5v26c0,6.89258-5.4502,12.5-12.14953,12.5Z" fill="#ccc" stroke-width="0"/><path d="m173.46566,185.14754h-27.70093c-6.69933,0-12.14953-5.60742-12.14953-12.5v-26c0-6.89258,5.4502-12.5,12.14953-12.5h27.70093c6.69933,0,12.14953,5.60742,12.14953,12.5v26c0,6.89258-5.4502,12.5-12.14953,12.5Z" fill="#ccc" stroke-width="0"/><path d="m249.96566,185.14754h-27.70093c-6.69933,0-12.14953-5.60742-12.14953-12.5v-26c0-6.89258,5.4502-12.5,12.14953-12.5h27.70093c6.69933,0,12.14953,5.60742,12.14953,12.5v26c0,6.89258-5.4502,12.5-12.14953,12.5Z" fill="#ccc" stroke-width="0"/><path d="m326.46566,185.14754h-27.70093c-6.69933,0-12.14953-5.60742-12.14953-12.5v-26c0-6.89258,5.4502-12.5,12.14953-12.5h27.70093c6.69933,0,12.14953,5.60742,12.14953,12.5v26c0,6.89258-5.4502,12.5-12.14953,12.5Z" fill="#ccc" stroke-width="0"/><path d="m96.96566,267.14754h-27.70093c-6.69933,0-12.14953-5.60742-12.14953-12.5v-26c0-6.89258,5.4502-12.5,12.14953-12.5h27.70093c6.69933,0,12.14953,5.60742,12.14953,12.5v26c0,6.89258-5.4502,12.5-12.14953,12.5Z" fill="#ccc" stroke-width="0"/><path d="m173.46566,267.14754h-27.70093c-6.69933,0-12.14953-5.60742-12.14953-12.5v-26c0-6.89258,5.4502-12.5,12.14953-12.5h27.70093c6.69933,0,12.14953,5.60742,12.14953,12.5v26c0,6.89258-5.4502,12.5-12.14953,12.5Z" fill="#ccc" stroke-width="0"/><path d="m249.96566,267.14754h-27.70093c-6.69933,0-12.14953-5.60742-12.14953-12.5v-26c0-6.89258,5.4502-12.5,12.14953-12.5h27.70093c6.69933,0,12.14953,5.60742,12.14953,12.5v26c0,6.89258-5.4502,12.5-12.14953,12.5Z" fill="#ccc" stroke-width="0"/><path d="m326.46566,267.14754h-27.70093c-6.69933,0-12.14953-5.60742-12.14953-12.5v-26c0-6.89258,5.4502-12.5,12.14953-12.5h27.70093c6.69933,0,12.14953,5.60742,12.14953,12.5v26c0,6.89258-5.4502,12.5-12.14953,12.5Z" fill="#ccc" stroke-width="0"/><path d="m96.96566,350.14754h-27.70093c-6.69933,0-12.14953-5.60742-12.14953-12.5v-26c0-6.89258,5.4502-12.5,12.14953-12.5h27.70093c6.69933,0,12.14953,5.60742,12.14953,12.5v26c0,6.89258-5.4502,12.5-12.14953,12.5Z" fill="#ccc" stroke-width="0"/><path d="m173.46566,350.14754h-27.70093c-6.69933,0-12.14953-5.60742-12.14953-12.5v-26c0-6.89258,5.4502-12.5,12.14953-12.5h27.70093c6.69933,0,12.14953,5.60742,12.14953,12.5v26c0,6.89258-5.4502,12.5-12.14953,12.5Z" fill="#ccc" stroke-width="0"/><path d="m249.96566,350.14754h-27.70093c-6.69933,0-12.14953-5.60742-12.14953-12.5v-26c0-6.89258,5.4502-12.5,12.14953-12.5h27.70093c6.69933,0,12.14953,5.60742,12.14953,12.5v26c0,6.89258-5.4502,12.5-12.14953,12.5Z" fill="#ccc" stroke-width="0"/><path d="m326.46566,350.14754h-27.70093c-6.69933,0-12.14953-5.60742-12.14953-12.5v-26c0-6.89258,5.4502-12.5,12.14953-12.5h27.70093c6.69933,0,12.14953,5.60742,12.14953,12.5v26c0,6.89258-5.4502,12.5-12.14953,12.5Z" fill="#ccc" stroke-width="0"/></svg>